<?xml version="1.0" encoding="UTF-8"?>
<svg id="Layer_1" data-name="Layer 1" xmlns="http://www.w3.org/2000/svg" viewBox="0 0 1197.9 309">
  <defs>
    <style>
      .cls-1 {
        fill: #28557e;
      }

      .cls-2 {
        fill: #ffbe3d;
      }

      .cls-3 {
        fill: #fff;
        stroke: #06233c;
        stroke-miterlimit: 10;
      }
    </style>
  </defs>
  <g>
    <g>
      <rect class="cls-2" x="84.08" y="38.6" width="82.07" height="14.52" rx="5.58" ry="5.58"/>
      <rect class="cls-2" x="106.12" y="64.47" width="60.03" height="14.52" rx="5.58" ry="5.58"/>
      <rect class="cls-2" x="84.08" y="200.82" width="82.07" height="14.52" rx="5.58" ry="5.58"/>
      <rect class="cls-2" x="106.12" y="268.8" width="93.31" height="14.52" rx="5.58" ry="5.58"/>
      <rect class="cls-2" x="100.65" y="242.45" width="90.81" height="14.52" rx="5.58" ry="5.58"/>
      <rect class="cls-2" x="86.48" y="66.1" width="15.15" height="14.52" rx="5.58" ry="5.58"/>
      <rect class="cls-2" x="48.41" y="108.06" width="15.15" height="14.52" rx="5.58" ry="5.58"/>
      <rect class="cls-2" x="60.49" y="38.6" width="15.15" height="14.52" rx="5.58" ry="5.58"/>
      <rect class="cls-2" x="39.33" y="241.86" width="15.15" height="14.52" rx="5.58" ry="5.58"/>
      <rect class="cls-2" x="31.85" y="38.6" width="22.64" height="14.52" rx="5.58" ry="5.58"/>
      <rect class="cls-2" x="71.13" y="108.06" width="48.63" height="14.52" rx="5.58" ry="5.58"/>
      <polygon class="cls-2" points="118.65 152.19 100.65 170.42 82.42 152.43 64.43 170.67 46.2 152.68 25.01 174.15 31.49 180.54 46.28 165.54 64.52 183.54 82.51 165.3 100.74 183.3 118.73 165.06 118.76 165.08 125.19 158.65 118.65 152.19"/>
      <path class="cls-2" d="m12.06,57.92c-6.65,0-12.06-5.41-12.06-12.06s5.41-12.06,12.06-12.06,12.06,5.41,12.06,12.06-5.41,12.06-12.06,12.06Zm0-17.75c-3.14,0-5.69,2.55-5.69,5.69s2.55,5.69,5.69,5.69,5.69-2.55,5.69-5.69-2.55-5.69-5.69-5.69Z"/>
      <path class="cls-2" d="m80.79,261.77c-6.65,0-12.06-5.41-12.06-12.06s5.41-12.06,12.06-12.06,12.06,5.41,12.06,12.06-5.41,12.06-12.06,12.06Zm0-17.75c-3.14,0-5.69,2.55-5.69,5.69s2.55,5.69,5.69,5.69,5.69-2.55,5.69-5.69-2.55-5.69-5.69-5.69Z"/>
      <rect class="cls-2" x="14.47" y="243.79" width="11.16" height="10.65" rx="5.32" ry="5.32"/>
      <rect class="cls-2" x="83.57" y="268.8" width="13.58" height="14.52" rx="5.58" ry="5.58"/>
    </g>
    <g>
      <rect class="cls-2" x="1031.75" y="38.6" width="82.07" height="14.52" rx="5.58" ry="5.58" transform="translate(2145.57 91.72) rotate(180)"/>
      <rect class="cls-2" x="1031.75" y="64.47" width="60.03" height="14.52" rx="5.58" ry="5.58" transform="translate(2123.53 143.46) rotate(-180)"/>
      <rect class="cls-2" x="1031.75" y="200.82" width="82.07" height="14.52" rx="5.58" ry="5.58" transform="translate(2145.57 416.16) rotate(-180)"/>
      <rect class="cls-2" x="998.47" y="268.8" width="93.31" height="14.52" rx="5.58" ry="5.58" transform="translate(2090.25 552.12) rotate(-180)"/>
      <rect class="cls-2" x="1006.44" y="242.45" width="90.81" height="14.52" rx="5.58" ry="5.58" transform="translate(2103.69 499.42) rotate(180)"/>
      <rect class="cls-2" x="1096.27" y="66.1" width="15.15" height="14.52" rx="5.58" ry="5.58" transform="translate(2207.7 146.73) rotate(-180)"/>
      <rect class="cls-2" x="1134.34" y="108.06" width="15.15" height="14.52" rx="5.58" ry="5.58" transform="translate(2283.84 230.65) rotate(-180)"/>
      <rect class="cls-2" x="1122.26" y="38.6" width="15.15" height="14.52" rx="5.58" ry="5.58" transform="translate(2259.68 91.72) rotate(-180)"/>
      <rect class="cls-2" x="1143.42" y="241.86" width="15.15" height="14.52" rx="5.58" ry="5.58" transform="translate(2301.99 498.23) rotate(-180)"/>
      <rect class="cls-2" x="1143.42" y="38.6" width="22.64" height="14.52" rx="5.58" ry="5.58" transform="translate(2309.48 91.72) rotate(-180)"/>
      <rect class="cls-2" x="1078.14" y="108.06" width="48.63" height="14.52" rx="5.58" ry="5.58" transform="translate(2204.91 230.65) rotate(180)"/>
      <polygon class="cls-2" points="1079.26 152.19 1097.25 170.42 1115.48 152.43 1133.47 170.67 1151.71 152.68 1172.89 174.15 1166.42 180.54 1151.62 165.54 1133.39 183.54 1115.39 165.3 1097.16 183.3 1079.17 165.06 1079.14 165.08 1072.71 158.65 1079.26 152.19"/>
      <path class="cls-2" d="m1173.79,45.86c0-6.65,5.41-12.06,12.06-12.06s12.06,5.41,12.06,12.06c0,6.65-5.41,12.06-12.06,12.06-6.65,0-12.06-5.41-12.06-12.06Zm6.37,0c0,3.14,2.55,5.69,5.69,5.69s5.69-2.55,5.69-5.69c0-3.14-2.55-5.69-5.69-5.69s-5.69,2.55-5.69,5.69Z"/>
      <path class="cls-2" d="m1105.05,249.71c0-6.65,5.41-12.06,12.06-12.06,6.65,0,12.06,5.41,12.06,12.06,0,6.65-5.41,12.06-12.06,12.06-6.65,0-12.06-5.41-12.06-12.06Zm6.37,0c0,3.14,2.55,5.69,5.69,5.69,3.14,0,5.69-2.55,5.69-5.69s-2.55-5.69-5.69-5.69c-3.14,0-5.69,2.55-5.69,5.69Z"/>
      <rect class="cls-2" x="1176.28" y="243.79" width="11.16" height="10.65" rx="5.32" ry="5.32" transform="translate(2363.71 498.23) rotate(-180)"/>
      <rect class="cls-2" x="1100.75" y="268.8" width="13.58" height="14.52" rx="5.58" ry="5.58" transform="translate(2215.08 552.12) rotate(180)"/>
    </g>
  </g>
  <rect class="cls-1" x="129.95" y="16" width="938" height="277" rx="59.22" ry="59.22"/>
  <path class="cls-2" d="m1005.66,0H192.24c-43.24,0-78.29,35.05-78.29,78.29v152.42c0,43.24,35.05,78.29,78.29,78.29h813.42c43.24,0,78.29-35.05,78.29-78.29V78.29c0-43.24-35.05-78.29-78.29-78.29Zm62.29,233.78c0,32.71-26.51,59.22-59.22,59.22H189.17c-32.71,0-59.22-26.51-59.22-59.22V75.22c0-32.71,26.51-59.22,59.22-59.22h819.56c32.71,0,59.22,26.51,59.22,59.22v158.56Z"/>
  <g>
    <path class="cls-3" d="m251.71,144.89h39.15v46.8c-4.2,3.5-9.23,6.05-15.08,7.65s-11.62,2.4-17.33,2.4c-6.7,0-12.93-1.05-18.67-3.15-5.75-2.1-10.73-5.37-14.92-9.83-4.2-4.45-7.5-10.12-9.9-17.03-2.4-6.9-3.6-15.1-3.6-24.6s1.42-18.32,4.27-25.27c2.85-6.95,6.6-12.6,11.25-16.95s9.87-7.5,15.67-9.45c5.8-1.95,11.7-2.93,17.7-2.93s11.27.45,15.82,1.35c4.55.9,8.18,1.85,10.88,2.85l-4.2,17.25c-2.5-1-5.3-1.77-8.4-2.33-3.1-.55-7.05-.82-11.85-.82-4.3,0-8.25.65-11.85,1.95-3.6,1.3-6.73,3.43-9.38,6.38-2.65,2.95-4.7,6.73-6.15,11.33-1.45,4.6-2.18,10.2-2.18,16.8s.7,11.73,2.1,16.27c1.4,4.55,3.35,8.3,5.85,11.25,2.5,2.95,5.42,5.13,8.77,6.53,3.35,1.4,6.92,2.1,10.73,2.1,2.6,0,5.15-.32,7.65-.97,2.5-.65,4.6-1.62,6.3-2.92v-19.8l-22.65-2.4v-12.45Z"/>
    <path class="cls-3" d="m365.56,193.19c-3,2.4-7.08,4.42-12.22,6.08-5.15,1.65-10.63,2.47-16.43,2.47-12.1,0-20.95-3.52-26.55-10.57-5.6-7.05-8.4-16.73-8.4-29.03,0-13.2,3.15-23.1,9.45-29.7,6.3-6.6,15.15-9.9,26.55-9.9,3.8,0,7.5.5,11.1,1.5,3.6,1,6.8,2.65,9.6,4.95,2.8,2.3,5.05,5.4,6.75,9.3,1.7,3.9,2.55,8.75,2.55,14.55,0,2.1-.13,4.35-.38,6.75-.25,2.4-.62,4.9-1.12,7.5h-44.85c.3,6.3,1.92,11.05,4.86,14.25,2.94,3.2,7.7,4.8,14.28,4.8,4.08,0,7.75-.62,10.99-1.88,3.24-1.25,5.71-2.52,7.4-3.83l6.43,12.75Zm-27.83-55.05c-5.07,0-8.83,1.53-11.27,4.58-2.44,3.05-3.9,7.12-4.4,12.22h27.75c.4-5.4-.42-9.55-2.46-12.45-2.04-2.9-5.25-4.35-9.62-4.35Z"/>
    <path class="cls-3" d="m373.96,124.64h10.35v-14.1l19.5-5.55v19.65h18.3v16.5h-18.3v28.8c0,5.2.52,8.92,1.57,11.17,1.05,2.25,3.02,3.38,5.93,3.38,2,0,3.72-.2,5.17-.6,1.45-.4,3.08-1,4.88-1.8l3.45,15c-2.7,1.3-5.85,2.4-9.45,3.3s-7.25,1.35-10.95,1.35c-6.9,0-11.98-1.78-15.23-5.32-3.25-3.55-4.88-9.38-4.88-17.48v-37.8h-10.35v-16.5Z"/>
    <path class="cls-3" d="m464.25,124.64h10.35v-14.1l19.5-5.55v19.65h18.3v16.5h-18.3v28.8c0,5.2.53,8.92,1.57,11.17,1.05,2.25,3.02,3.38,5.93,3.38,2,0,3.72-.2,5.18-.6,1.45-.4,3.07-1,4.88-1.8l3.45,15c-2.7,1.3-5.85,2.4-9.45,3.3-3.6.9-7.25,1.35-10.95,1.35-6.9,0-11.98-1.78-15.22-5.32-3.25-3.55-4.88-9.38-4.88-17.48v-37.8h-10.35v-16.5Z"/>
    <path class="cls-3" d="m570.3,199.64v-42.6c0-6.1-.85-10.5-2.55-13.2-1.7-2.7-4.8-4.05-9.3-4.05-3.3,0-6.33,1.12-9.07,3.38-2.75,2.25-4.58,5.13-5.48,8.62v47.85h-19.5v-105h19.5v38.4h.6c2.4-3.2,5.35-5.75,8.85-7.65,3.5-1.9,7.95-2.85,13.35-2.85,3.8,0,7.15.5,10.05,1.5,2.9,1,5.32,2.65,7.27,4.95,1.95,2.3,3.4,5.43,4.35,9.38.95,3.95,1.42,8.83,1.42,14.62v46.65h-19.5Z"/>
    <path class="cls-3" d="m666.15,193.19c-3,2.4-7.08,4.42-12.22,6.08-5.15,1.65-10.63,2.47-16.42,2.47-12.1,0-20.95-3.52-26.55-10.57-5.6-7.05-8.4-16.73-8.4-29.03,0-13.2,3.15-23.1,9.45-29.7,6.3-6.6,15.15-9.9,26.55-9.9,3.8,0,7.5.5,11.1,1.5,3.6,1,6.8,2.65,9.6,4.95,2.8,2.3,5.05,5.4,6.75,9.3,1.7,3.9,2.55,8.75,2.55,14.55,0,2.1-.13,4.35-.38,6.75-.25,2.4-.62,4.9-1.12,7.5h-44.86c.3,6.3,1.92,11.05,4.86,14.25,2.94,3.2,7.7,4.8,14.28,4.8,4.08,0,7.75-.62,10.99-1.88,3.24-1.25,5.71-2.52,7.4-3.83l6.43,12.75Zm-27.83-55.05c-5.07,0-8.83,1.53-11.27,4.58-2.44,3.05-3.9,7.12-4.4,12.22h27.75c.4-5.4-.42-9.55-2.46-12.45-2.04-2.9-5.25-4.35-9.62-4.35Z"/>
    <path class="cls-3" d="m719.85,128.99c4-1.8,8.75-3.23,14.25-4.27,5.5-1.05,11.25-1.58,17.25-1.58,5.2,0,9.55.63,13.05,1.88,3.5,1.25,6.27,3.03,8.32,5.33,2.05,2.3,3.5,5.05,4.35,8.25.85,3.2,1.27,6.8,1.27,10.8,0,4.4-.15,8.83-.45,13.28-.3,4.45-.48,8.83-.53,13.12-.05,4.3.08,8.47.38,12.52s1.05,7.88,2.25,11.48h-15.9l-3.15-10.35h-.75c-2,3.1-4.78,5.78-8.33,8.03-3.55,2.25-8.13,3.38-13.72,3.38-3.5,0-6.65-.53-9.45-1.58-2.8-1.05-5.2-2.55-7.2-4.5-2-1.95-3.55-4.25-4.65-6.9-1.1-2.65-1.65-5.62-1.65-8.92,0-4.6,1.02-8.47,3.08-11.62,2.05-3.15,5-5.7,8.85-7.65,3.85-1.95,8.45-3.3,13.8-4.05,5.35-.75,11.33-.98,17.92-.68.7-5.6.3-9.62-1.2-12.07-1.5-2.45-4.85-3.68-10.05-3.68-3.9,0-8.02.4-12.38,1.2-4.35.8-7.93,1.85-10.72,3.15l-4.65-14.55Zm24.75,55.8c3.9,0,7-.88,9.3-2.62,2.3-1.75,4-3.62,5.1-5.62v-9.75c-3.1-.3-6.08-.35-8.92-.15-2.85.2-5.38.65-7.58,1.35-2.2.7-3.95,1.7-5.25,3-1.3,1.3-1.95,2.95-1.95,4.95,0,2.8.83,4.98,2.48,6.53,1.65,1.55,3.92,2.33,6.82,2.33Z"/>
    <path class="cls-3" d="m794.7,124.64h14.25l2.25,9h.6c2.6-3.8,5.67-6.6,9.22-8.4,3.55-1.8,7.88-2.7,12.97-2.7,9.4,0,16.45,2.98,21.15,8.93,4.7,5.95,7.05,15.52,7.05,28.72,0,6.4-.75,12.18-2.25,17.33-1.5,5.15-3.73,9.53-6.67,13.12-2.95,3.6-6.55,6.35-10.8,8.25-4.25,1.9-9.13,2.85-14.62,2.85-3.1,0-5.65-.22-7.65-.67-2-.45-4-1.18-6-2.17v30.75h-19.5v-105Zm33.45,14.4c-3.8,0-6.78.95-8.92,2.85-2.15,1.9-3.83,4.75-5.03,8.55v31.2c1.4,1.1,2.92,1.98,4.58,2.62,1.65.65,3.83.97,6.53.97,5.6,0,9.8-1.97,12.6-5.92,2.8-3.95,4.2-10.47,4.2-19.58,0-6.6-1.1-11.7-3.3-15.3-2.2-3.6-5.75-5.4-10.65-5.4Z"/>
    <path class="cls-3" d="m875.7,124.64h14.25l2.25,9h.6c2.6-3.8,5.67-6.6,9.22-8.4,3.55-1.8,7.88-2.7,12.97-2.7,9.4,0,16.45,2.98,21.15,8.93,4.7,5.95,7.05,15.52,7.05,28.72,0,6.4-.75,12.18-2.25,17.33-1.5,5.15-3.73,9.53-6.67,13.12-2.95,3.6-6.55,6.35-10.8,8.25-4.25,1.9-9.13,2.85-14.62,2.85-3.1,0-5.65-.22-7.65-.67-2-.45-4-1.18-6-2.17v30.75h-19.5v-105Zm33.45,14.4c-3.8,0-6.78.95-8.92,2.85-2.15,1.9-3.83,4.75-5.03,8.55v31.2c1.4,1.1,2.92,1.98,4.58,2.62,1.65.65,3.83.97,6.53.97,5.6,0,9.8-1.97,12.6-5.92,2.8-3.95,4.2-10.47,4.2-19.58,0-6.6-1.1-11.7-3.3-15.3-2.2-3.6-5.75-5.4-10.65-5.4Z"/>
    <path class="cls-3" d="m961.05,189.74c0-3.5,1.1-6.27,3.3-8.32,2.2-2.05,5.1-3.08,8.7-3.08,3.8,0,6.8,1.03,9,3.08,2.2,2.05,3.3,4.83,3.3,8.32s-1.1,6.3-3.3,8.4c-2.2,2.1-5.2,3.15-9,3.15-3.6,0-6.5-1.05-8.7-3.15-2.2-2.1-3.3-4.9-3.3-8.4Zm2.1-95.1h20.1v49.35l-3.9,24.45h-12.3l-3.9-24.45v-49.35Z"/>
  </g>
</svg>