<?xml version="1.0" encoding="UTF-8"?>
<svg id="Layer_1" data-name="Layer 1" xmlns="http://www.w3.org/2000/svg" xmlns:xlink="http://www.w3.org/1999/xlink" viewBox="0 0 112.74 25.19">
  <defs>
    <style>
      .cls-1 {
        fill: url(#linear-gradient-2);
      }

      .cls-2 {
        fill: #203d51;
      }

      .cls-3 {
        stroke: url(#linear-gradient-13);
      }

      .cls-3, .cls-4, .cls-5, .cls-6, .cls-7, .cls-8 {
        fill: #fff;
        stroke-miterlimit: 10;
        stroke-width: .5px;
      }

      .cls-4 {
        stroke: url(#linear-gradient-11);
      }

      .cls-9 {
        fill: #2a5680;
      }

      .cls-10 {
        fill: url(#linear-gradient-6);
      }

      .cls-11 {
        fill: #274a6b;
      }

      .cls-12 {
        fill: #254461;
      }

      .cls-13 {
        fill: #172a3a;
      }

      .cls-14 {
        fill: #e9516d;
      }

      .cls-15 {
        fill: #24415b;
      }

      .cls-5 {
        stroke: url(#linear-gradient-12);
      }

      .cls-16 {
        fill: #1b3043;
      }

      .cls-17 {
        fill: url(#linear-gradient-10);
      }

      .cls-6 {
        stroke: url(#linear-gradient-15);
      }

      .cls-18 {
        fill: #1f374c;
      }

      .cls-19 {
        fill: #203950;
      }

      .cls-7 {
        stroke: url(#linear-gradient-16);
      }

      .cls-20 {
        fill: #295076;
      }

      .cls-21 {
        fill: #223d56;
      }

      .cls-22 {
        fill: url(#linear-gradient-5);
      }

      .cls-23 {
        fill: #274868;
      }

      .cls-24 {
        fill: #77c79f;
      }

      .cls-25 {
        fill: #294f74;
      }

      .cls-26 {
        fill: url(#linear-gradient-7);
      }

      .cls-27 {
        fill: #fdcf53;
      }

      .cls-8 {
        stroke: url(#linear-gradient-14);
      }

      .cls-28 {
        fill: url(#linear-gradient-9);
      }

      .cls-29 {
        fill: url(#linear-gradient-3);
      }

      .cls-30 {
        fill: url(#linear-gradient);
      }

      .cls-31 {
        fill: url(#linear-gradient-4);
      }

      .cls-32 {
        fill: url(#linear-gradient-8);
      }
    </style>
    <linearGradient id="linear-gradient" x1="25.59" y1="15.56" x2="28.15" y2="15.56" gradientUnits="userSpaceOnUse">
      <stop offset="0" stop-color="#be1e2d"/>
      <stop offset=".54" stop-color="#fbb040"/>
      <stop offset="1" stop-color="#2b3990"/>
    </linearGradient>
    <linearGradient id="linear-gradient-2" x1="54.62" y1="10" x2="54.68" y2="10" xlink:href="#linear-gradient"/>
    <linearGradient id="linear-gradient-3" x1="54.69" y1="10.11" x2="54.73" y2="10.11" xlink:href="#linear-gradient"/>
    <linearGradient id="linear-gradient-4" x1="54.74" y1="10.25" x2="54.76" y2="10.25" xlink:href="#linear-gradient"/>
    <linearGradient id="linear-gradient-5" x1="85.81" y1="14.24" x2="86.68" y2="14.24" xlink:href="#linear-gradient"/>
    <linearGradient id="linear-gradient-6" x1="74.3" y1="14.24" x2="74.84" y2="14.24" xlink:href="#linear-gradient"/>
    <linearGradient id="linear-gradient-7" x1="69.75" y1="9.97" x2="69.78" y2="9.97" xlink:href="#linear-gradient"/>
    <linearGradient id="linear-gradient-8" x1="56.68" y1="10.12" x2="56.71" y2="10.12" xlink:href="#linear-gradient"/>
    <linearGradient id="linear-gradient-9" x1="56.65" y1="10.25" x2="56.67" y2="10.25" xlink:href="#linear-gradient"/>
    <linearGradient id="linear-gradient-10" x1="56.73" y1="10" x2="56.79" y2="10" xlink:href="#linear-gradient"/>
    <linearGradient id="linear-gradient-11" x1="21.8" y1="1.71" x2="21.8" y2="17.82" gradientUnits="userSpaceOnUse">
      <stop offset="0" stop-color="#2a5680"/>
      <stop offset="1" stop-color="#172a3a"/>
    </linearGradient>
    <linearGradient id="linear-gradient-12" x1="32.15" y1="1.71" x2="32.15" y2="17.82" xlink:href="#linear-gradient-11"/>
    <linearGradient id="linear-gradient-13" x1="47.75" x2="47.75" xlink:href="#linear-gradient-11"/>
    <linearGradient id="linear-gradient-14" x1="90.3" x2="90.3" xlink:href="#linear-gradient-11"/>
    <linearGradient id="linear-gradient-15" x1="77.79" x2="77.79" xlink:href="#linear-gradient-11"/>
    <linearGradient id="linear-gradient-16" x1="63.86" x2="63.86" xlink:href="#linear-gradient-11"/>
  </defs>
  <rect class="cls-13" x="88.7" y="23.78" width="13.99" height="1.08" rx=".42" ry=".42"/>
  <rect class="cls-16" x="88.7" y="21.93" width="9.19" height="1.08" rx=".42" ry=".42"/>
  <rect class="cls-2" x="92.18" y="23.92" width="3.43" height=".8" rx=".4" ry=".4"/>
  <rect class="cls-2" x="92.18" y="21.93" width="3.43" height="1.08" rx=".4" ry=".4"/>
  <rect class="cls-21" x="94.88" y="17.3" width="3.32" height="1.08" rx=".42" ry=".42"/>
  <rect class="cls-13" x="93.79" y="17.3" width="3.43" height="1.08" rx=".4" ry=".4"/>
  <rect class="cls-25" x="12.2" y="4.74" width="6.13" height="1.08" rx=".42" ry=".42"/>
  <rect class="cls-23" x="13.85" y="6.67" width="4.48" height="1.08" rx=".42" ry=".42"/>
  <rect class="cls-9" x="12.2" y="2.96" width="6.13" height="1.08" rx=".42" ry=".42"/>
  <rect class="cls-15" x="15.61" y="9.93" width="7.56" height="1.08" rx=".42" ry=".42"/>
  <rect class="cls-13" x="16.58" y="9.93" width="2.35" height="1.08" rx=".42" ry=".42"/>
  <rect class="cls-13" x="15.27" y="6.67" width="2.35" height="1.08" rx=".42" ry=".42"/>
  <rect class="cls-19" x="14.8" y="23.78" width="2.67" height="1.08" rx=".42" ry=".42"/>
  <rect class="cls-2" x="15.61" y="23.78" width="7.84" height="1.08" rx=".42" ry=".42"/>
  <rect class="cls-19" x="13.85" y="21.93" width="6.97" height="1.08" rx=".42" ry=".42"/>
  <rect class="cls-19" x="13.44" y="19.96" width="6.78" height="1.08" rx=".42" ry=".42"/>
  <rect class="cls-18" x="88.7" y="19.67" width="11.7" height="1.08" rx=".42" ry=".42"/>
  <path class="cls-2" d="m40.81,17.55c0-.12-.01-.25-.03-.38-.01-.13-.03-.26-.04-.4,0,0,0-.02,0-.03,0,0,0-.02,0-.03s0-.02,0-.03c0,0,0-.02,0-.03l-.48-2.88s0-.01,0-.02c0,0,0,0,0-.01l-.43-2.57s-.01-.08-.02-.11c-.01-.06-.02-.13-.03-.2l-.3-1.83c-.02-.13-.05-.27-.07-.41-.03-.14-.06-.29-.09-.44-.03-.15-.07-.31-.11-.47-.04-.16-.09-.33-.13-.5l-1.28-4.62c-.01-.06-.03-.11-.05-.15-.02-.05-.04-.09-.07-.13-.03-.04-.05-.08-.09-.11-.03-.03-.07-.06-.11-.09-.04-.03-.08-.05-.13-.07-.05-.02-.09-.03-.15-.05-.05-.01-.11-.02-.17-.03-.06,0-.12,0-.19,0h-5.52c-.07,0-.14,0-.2,0-.06,0-.12.01-.18.03-.06.01-.11.03-.16.05-.05.02-.1.04-.15.07s-.09.06-.13.09c-.04.03-.08.07-.12.11-.04.04-.08.08-.11.13-.04.05-.07.1-.1.15l-1.19,2.05-.08-.32c-.19-.73-.38-1.43-.55-2.06,0-.01,0-.03-.01-.04,0-.01-.01-.03-.02-.04,0-.01-.01-.02-.02-.03,0-.01-.01-.02-.02-.03-.03-.03-.06-.05-.09-.07-.03-.02-.07-.04-.12-.05-.04-.01-.09-.02-.15-.03-.05,0-.11,0-.18,0h-10.83c-.07,0-.13,0-.18,0-.06,0-.11.02-.16.03-.05.01-.1.03-.14.05-.04.02-.09.05-.12.07-.03.03-.07.06-.1.09s-.06.08-.09.12c-.03.05-.05.09-.07.15-.02.05-.04.11-.06.17l1.24,3.18h-1.37c-.07,0-.13,0-.18-.01-.03,0-.05-.01-.08-.02l-.29-.71c-.01.05-.03.1-.03.15,0,.05-.01.09-.01.13,0,.04,0,.08,0,.11,0,.03.01.07.02.09l.97,2.37c.57,1.38,1.17,2.85,1.72,4.2l.48,1.17s0,.01,0,.02c0,0,0,.01,0,.02,0,0,0,.01,0,.02,0,0,0,0,0,.01.02.03.05.06.08.08.03.02.07.04.11.06.04.01.09.03.14.03.05,0,.11.01.17.01h2.85l-.87,3.94s-.05.02-.08.03c-.06.02-.12.03-.18.03-.06,0-.13.01-.2.01h-.53c-.33,0-.65-.04-.94-.12-.14-.04-.25-.11-.38-.17l-1.63-3.81c-.05.22-.09.43-.11.64-.02.21-.02.41-.01.61.01.2.04.39.08.58.04.19.1.36.18.53,1.05,2.39,2.12,4.85,3.22,7.37.02.05.06.09.08.14.06.12.12.25.19.36.03.04.06.06.09.1.02.03.03.06.05.09.03.04.08.07.12.11.11.12.23.22.36.32.04.03.07.07.11.1.03.02.07.03.11.05.05.03.09.07.14.09.1.05.22.08.33.12.06.02.1.06.16.07.02,0,.04,0,.07,0,.25.07.51.11.8.11h.48c.07,0,.13,0,.19-.01s.11-.02.16-.03.1-.03.14-.06c.04-.02.08-.05.12-.09.03-.03.06-.07.09-.11.03-.04.06-.09.08-.14.02-.05.05-.11.07-.17.02-.06.04-.13.05-.2l.99-5.21.07.21c.64,1.81,1.36,3.84,1.95,5.5,0,0,0,0,0,0h0s0,0,0,0c0,0,0,.01,0,.02,0,.01.01.02.02.03,0,.01.01.02.02.03,0,0,.01.02.02.03.02.03.05.06.08.09s.07.04.12.06c.04.02.09.03.15.03.06,0,.12.01.18.01h3.06c.07,0,.13,0,.19-.01.06,0,.11-.02.16-.03.05-.02.1-.03.14-.06.04-.02.08-.05.12-.09.03-.03.06-.07.09-.11.03-.04.05-.09.07-.14.02-.05.04-.11.06-.17.02-.06.03-.13.04-.2l.45-3.14h2.35c.31,1.23.61,2.47.88,3.55,0,.02.01.04.02.06,0,.01.01.02.02.04,0,0,0,0,0,0,0,0,0,0,0,0,0,0,0,0,0,.01,0,.02.02.04.03.05.01.02.02.03.04.04.03.03.06.06.1.09.04.02.08.04.13.06.05.02.1.03.16.03.06,0,.12.01.2.01h3.14c.07,0,.13,0,.19-.01.06,0,.11-.02.16-.03.05-.02.1-.03.14-.06.04-.02.08-.05.11-.09.03-.03.06-.07.09-.11.03-.04.05-.09.07-.14.02-.05.04-.11.05-.17.01-.06.02-.13.03-.2l.54-5.82c0-.11.02-.22.02-.33,0-.11,0-.23,0-.36Z"/>
  <polygon class="cls-30" points="26.36 13.55 26.88 13.55 28.15 17.57 25.59 17.57 26.36 13.55"/>
  <path class="cls-1" d="m54.68,10.04h0s-.04-.06-.07-.09c.02.02.05.05.07.09Z"/>
  <path class="cls-29" d="m54.69,10.07s.03.06.04.09h0s-.02-.06-.04-.09Z"/>
  <path class="cls-31" d="m54.74,10.21s.02.06.02.1h0s-.01-.06-.02-.1Z"/>
  <polygon class="cls-22" points="85.81 13.46 86.68 13.46 86.12 15.02 85.81 13.46"/>
  <polygon class="cls-10" points="74.84 13.46 74.49 15.02 74.3 13.46 74.84 13.46"/>
  <path class="cls-26" d="m69.75,10h0s.02-.03.03-.04c-.01.01-.02.03-.03.04Z"/>
  <g>
    <path class="cls-2" d="m54.77,10.46c0-.93,0-1.96,0-3.01v-1.07c0-.55,0-1.08,0-1.61v-2.13c0-.06,0-.11-.02-.17,0-.05-.02-.1-.03-.15s-.03-.08-.05-.12c-.02-.04-.04-.07-.07-.09-.03-.03-.07-.05-.1-.07-.04-.02-.08-.04-.13-.05-.05-.01-.1-.02-.15-.03-.06,0-.12,0-.18,0h-3.08c-.07,0-.13,0-.18,0-.06,0-.11.02-.15.03-.05.01-.09.03-.13.05-.04.02-.07.05-.1.07-.03.03-.06.06-.08.09-.02.04-.05.08-.06.12-.02.05-.03.09-.04.15,0,.05-.02.11-.02.17l.38,7.82-.13,4.2-.4-7.69-3.82-4.51s-.09-.09-.13-.13c-.04-.04-.09-.08-.13-.11-.04-.03-.09-.06-.13-.09-.04-.03-.09-.05-.13-.07-.04-.02-.09-.03-.14-.05-.05-.01-.1-.02-.16-.03-.05,0-.11-.01-.17-.02-.06,0-.12,0-.19,0h-2.14c-.07,0-.13,0-.18,0-.06,0-.11.02-.16.03-.05.01-.09.03-.13.05-.04.02-.07.05-.1.07-.03.03-.06.06-.09.09-.03.04-.05.08-.07.12-.02.05-.04.09-.05.15-.01.05-.02.11-.03.17l1.01,7.82-.58,7.1h-1.01c-.07,0-.14,0-.2-.01-.06,0-.12-.02-.17-.03-.05-.02-.09-.04-.13-.06-.04-.03-.07-.06-.1-.09-.02-.02-.03-.04-.05-.06l-.1-.59s0,.06,0,.09c0,.03,0,.06,0,.09,0,.03,0,.06,0,.08,0,.03,0,.05,0,.08.36,2.14.84,5.06,1.22,7.32,0,0,0,.02,0,.03,0,0,0,0,0,.01,0,0,0,0,0,.01,0,.01,0,.02,0,.04,0,.03.02.05.03.08,0,0,0,0,0,.01,0,0,0,0,0,0,0,0,0,0,0,0,0,.02.01.03.02.04.01.02.03.04.04.06.02.03.05.06.09.09.04.02.08.04.12.06.05.02.1.03.15.03.06,0,.12.01.18.01h3.13c.07,0,.13,0,.19-.01.06,0,.11-.02.16-.03s.09-.03.13-.06c.04-.02.08-.05.11-.09.03-.03.06-.07.08-.11.02-.04.04-.09.06-.14.02-.05.03-.11.04-.17.01-.06.02-.13.02-.2l.39-7.21,2.96,4.03.21,3.33s0,.02,0,.02c0,0,0,.01,0,.02,0,.01,0,.02,0,.04,0,.02,0,.05,0,.07,0,.01,0,.03.01.04,0,0,0,.02,0,.03,0,0,0,.01,0,.02,0,.01,0,.02,0,.04,0,.02.02.04.02.05,0,0,0,.02.01.03,0,0,0,0,0,0,0,0,0,.01,0,.01.02.03.04.06.07.09.03.03.06.06.09.09.04.02.08.04.12.06s.1.03.15.03c.06,0,.12.01.18.01h3.13c.07,0,.13,0,.18-.01s.11-.02.16-.03c.05-.02.09-.03.13-.06.04-.02.07-.05.11-.09.03-.03.05-.07.07-.11.02-.04.04-.09.05-.14.01-.05.03-.11.03-.17,0-.06.01-.13.01-.2l.05-13.58s0-.07,0-.1c0,.03,0,.06,0,.09Z"/>
    <path class="cls-2" d="m97.44,14.54c-.02-.2-.05-.4-.11-.61-.02-.07-.05-.13-.07-.19-.03-.06-.05-.11-.08-.16-.03-.05-.06-.09-.09-.13-.03-.04-.07-.07-.1-.1-.04-.03-.09-.06-.14-.09-.05-.02-.1-.04-.15-.06-.05-.02-.11-.03-.18-.03s-.13-.01-.2-.01h-2.66l.95-2.2s.02-.06.03-.1c0-.04,0-.08,0-.12,0-.04,0-.09-.01-.14s-.02-.11-.04-.17l-.33.77s-.03.01-.05.01c-.06,0-.12.01-.19.01h-1.32l1.29-3.11c-.02-.07-.04-.13-.06-.19,0-.02-.01-.03-.02-.04l.98-2.37s.02-.06.03-.1c0-.04,0-.08,0-.12,0-.04,0-.09-.01-.14,0-.05-.02-.1-.03-.15l-.29.71s-.05.01-.08.02c-.06,0-.12,0-.18,0h-1.31l1.21-3.08c-.02-.06-.04-.12-.06-.17-.02-.05-.05-.1-.07-.15-.03-.05-.06-.09-.09-.12-.03-.04-.06-.07-.1-.09-.04-.03-.08-.05-.12-.07-.04-.02-.09-.04-.14-.05-.05-.01-.1-.02-.16-.03-.06,0-.12,0-.18,0h-9.51c-.07,0-.13,0-.18,0-.06,0-.11.02-.15.03-.05.01-.09.03-.12.05-.03.02-.06.05-.08.07,0,0-.02.02-.02.03s-.01.02-.02.03-.01.02-.02.03c0,.01,0,.02-.01.04-.29,1.01-.62,2.2-.96,3.41-.02.01-.04.02-.07.03-.05.01-.1.02-.15.03s-.12,0-.19,0h-.66l.83-3.08c-.01-.06-.03-.12-.04-.17-.02-.05-.04-.1-.06-.15-.02-.05-.05-.09-.08-.12-.03-.04-.06-.07-.09-.09-.04-.03-.08-.05-.12-.07-.04-.02-.09-.04-.14-.05-.05-.01-.1-.02-.16-.03-.06,0-.12,0-.18,0h-9.51c-.07,0-.13,0-.18,0-.06,0-.11.02-.15.03-.05.01-.09.03-.12.05-.04.02-.07.05-.09.07-.01.01-.03.03-.04.05-.01.02-.02.03-.03.05,0,.02-.02.04-.02.06,0,.02-.01.05-.02.07-.06.37-.12.77-.19,1.18l-.79,4.98c-.02.14-.04.27-.07.41-.06-.11-.11-.22-.18-.32-.11-.15-.22-.29-.36-.42-.13-.13-.27-.25-.42-.35-.15-.1-.31-.18-.47-.25-.02,0-.04-.01-.06-.02l.73-5.13s0-.06,0-.09c0-.03,0-.06-.01-.08,0-.03-.01-.05-.03-.07s-.02-.04-.04-.06c-.02-.03-.05-.05-.08-.07-.03-.02-.07-.04-.11-.05-.04-.01-.09-.02-.14-.03-.05,0-.1,0-.16,0h-3.15c-.07,0-.13,0-.19,0-.06,0-.11.01-.17.02-.05.01-.1.02-.15.04-.04.02-.09.04-.12.06-.04.03-.08.06-.12.09-.04.03-.07.07-.1.11s-.06.09-.08.14c-.03.05-.05.1-.07.16l-1.88,4.75h-.86l-.54,7.68-.17-4.55.51-7.82c0-.06,0-.12-.02-.17,0-.05-.02-.1-.04-.15-.02-.05-.03-.09-.06-.12-.02-.04-.05-.07-.08-.09-.03-.03-.06-.05-.1-.07-.04-.02-.08-.04-.13-.05-.05-.01-.1-.02-.15-.03-.06,0-.11,0-.18,0h-3.18c-.07,0-.13,0-.18,0-.06,0-.11.02-.15.03-.05.01-.09.03-.13.05-.04.02-.07.05-.1.07-.03.02-.05.05-.07.09-.02.03-.04.07-.05.11-.01.04-.02.09-.03.14,0,.05-.01.1-.01.16l-.04,2.04c-.01.55-.02,1.12-.03,1.69v.29c-.02.92-.04,1.85-.05,2.72l-.02,1.08s0,0,0,0c0,0,0,0,0,0h0s0,.02,0,.02v-.05s0-.04,0-.06c0,.04,0,.07,0,.11l.13,13.58c0,.07,0,.13.01.2,0,.06.02.12.03.17.02.05.03.1.06.14.02.04.05.08.07.11.03.03.07.06.11.09.04.02.08.04.13.06.05.02.1.03.16.03.06,0,.12.01.19.01h3.24c.06,0,.12,0,.18-.01.06,0,.11-.02.15-.03s.09-.03.13-.06c.04-.02.07-.05.1-.09.02-.02.04-.05.06-.07,0,0,0-.02.01-.02,0,0,0,0,0-.01,0,0,0-.01,0-.02,0-.01.01-.02.02-.04,0-.02.01-.04.02-.07,0,0,0-.01,0-.02,0,0,0,0,0,0,0,0,0,0,0-.01,0-.04.01-.08.02-.12l.44-5.3h2.02c.06,0,.11,0,.16.01.05,0,.09.02.13.04.04.02.08.04.11.06.03.02.06.05.09.08.03.03.06.07.08.11.02.04.04.08.06.12s.03.09.04.14c0,.05.02.1.02.16l.26,4.35c0,.07.01.13.02.2.01.06.03.12.05.17.02.05.04.1.07.14.03.04.06.08.09.11.03.03.06.06.1.09.04.02.08.04.13.06s.1.03.16.03c.06,0,.12.01.19.01h3.2c.07,0,.13,0,.19-.01.06,0,.11-.02.16-.03.05-.02.09-.03.13-.06.04-.02.07-.05.09-.09.02-.02.03-.03.04-.05.01-.02.02-.03.03-.05,0,0,0,0,0,0,0,0,0,0,0,0,0,0,0,0,0,0,.01-.02.02-.05.03-.07,0-.02,0-.04.01-.06,0,0,0,0,0,0,0,0,0,0,0,0,0,0,0,0,0-.01l.54-2.91c.09-.47.17-.94.26-1.4l.15-.8s.01-.06.02-.09l.47,4.85c0,.07.02.13.03.2.01.06.03.12.05.17.02.05.04.1.07.14.03.04.06.08.09.11.03.03.07.06.11.09.04.02.09.04.14.06.05.02.11.03.16.03.06,0,.12.01.19.01h9.66c.07,0,.13,0,.18-.01s.11-.02.15-.03.09-.03.12-.06c.04-.02.07-.05.09-.09,0,0,.01-.01.02-.02,0,0,0-.02.01-.03,0,0,0-.02.01-.03s0-.02.01-.03c.27-.78.57-1.65.88-2.53l.35,2.01c.01.07.03.13.04.2.02.06.04.12.06.17.02.05.05.1.08.14.03.04.06.08.1.11.03.03.07.06.11.09.04.02.09.04.14.06.05.02.11.03.17.03.06,0,.12.01.19.01h7.19c.24,0,.46-.04.67-.1.01,0,.03,0,.04,0,.06-.02.1-.05.15-.07.1-.04.21-.07.31-.12.03-.02.05-.04.08-.06.02-.01.05-.02.07-.03.05-.03.08-.07.12-.1.1-.08.2-.16.29-.25.03-.03.06-.04.08-.07.03-.03.05-.08.08-.11.04-.05.08-.09.12-.14.04-.06.06-.12.09-.18.02-.04.06-.08.08-.12,1.23-2.52,2.43-4.97,3.6-7.36.08-.16.14-.32.18-.49.05-.17.08-.35.09-.54.01-.19.01-.38,0-.58Zm-27.26,3.03h-1.12l.82-4.96.48,4.95c-.06,0-.12,0-.19,0Zm10.79-7.04l.12.69s-.04,0-.06,0h-.26c.07-.23.13-.46.2-.69Zm.04,2.63c.09-.3.18-.6.26-.89l.15.89h-.41Z"/>
  </g>
  <path class="cls-32" d="m56.71,10.08s-.02.05-.03.08c0,0,0,0,0,0,0-.03.02-.05.03-.07Z"/>
  <path class="cls-28" d="m56.65,10.28s.01-.05.02-.07c0,.03-.01.06-.02.09,0,0,0,0,0-.01Z"/>
  <path class="cls-17" d="m56.73,10.04s0,0,0,0c.02-.03.04-.06.06-.08-.02.02-.05.05-.06.09Z"/>
  <rect class="cls-12" x="93.2" y="10.23" width="4.41" height="1.08" rx=".42" ry=".42"/>
  <rect class="cls-11" x="93.2" y="8.21" width="2.9" height="1.08" rx=".42" ry=".42"/>
  <polygon class="cls-9" points="1.36 23.21 2.54 24.37 3.7 23.19 4.87 24.35 6.03 23.18 7.2 24.33 8.36 23.16 9.53 24.32 10.48 23.35 10.9 23.76 9.54 25.15 8.36 23.99 7.21 25.16 6.03 24 4.87 25.18 3.7 24.02 2.54 25.19 1.37 24.04 .42 25 0 24.59 1.36 23.21"/>
  <rect class="cls-20" x="88.7" y="4.45" width="11.7" height="1.08" rx=".42" ry=".42"/>
  <rect class="cls-9" x="88.7" y="2.61" width="9.19" height="1.08" rx=".42" ry=".42"/>
  <path class="cls-4" d="m27.73,1.96c.07,0,.13,0,.18,0s.1.02.15.03.08.03.12.05.06.05.09.07c.02.03.04.06.05.09s.02.08.03.12,0,.09,0,.15,0,.11-.02.17l-.47,2.44c-.01.07-.03.13-.05.18s-.04.11-.06.15-.05.09-.08.12-.06.07-.09.1c-.04.03-.08.06-.12.08s-.09.04-.14.06-.11.03-.17.03-.12.01-.19.01h-3.1l-2.38,10.9c-.02.07-.03.14-.06.2s-.05.12-.08.18-.06.11-.09.15-.07.08-.1.11c-.04.04-.09.07-.14.09s-.1.05-.16.06-.12.03-.18.03-.13.01-.2.01h-.53c-.55,0-1.05-.12-1.47-.33s-.78-.52-1.04-.89-.44-.82-.52-1.31-.05-1.02.09-1.57l1.93-7.64h-3.1c-.07,0-.13,0-.18-.01s-.11-.02-.15-.03-.08-.03-.12-.06-.06-.05-.08-.08c-.02-.03-.04-.06-.05-.1s-.02-.08-.02-.12,0-.1,0-.15.02-.12.04-.18l.68-2.44c.02-.06.04-.12.06-.17s.05-.1.07-.15.06-.09.09-.12.06-.07.1-.09c.04-.03.08-.05.12-.07s.09-.04.14-.05.1-.02.16-.03.12,0,.18,0h10.83Z"/>
  <path class="cls-5" d="m39.48,9.15c.02.14.03.28.04.41s.02.27.02.39,0,.25,0,.37-.01.23-.02.35l-.64,6.05c0,.07-.02.14-.03.2s-.03.12-.06.18-.05.11-.08.15-.06.08-.1.11c-.03.04-.07.07-.12.09s-.1.05-.15.06-.12.03-.18.03-.13.01-.21.01h-3.44c-.08,0-.15,0-.21-.01s-.12-.02-.18-.03-.1-.04-.14-.06-.08-.06-.11-.09c-.03-.03-.06-.07-.08-.11s-.04-.09-.05-.15-.02-.12-.02-.18,0-.13.02-.2l.45-3.28h-3.93l-.54,3.28c-.01.07-.03.14-.05.2s-.04.12-.07.18-.05.11-.08.15-.06.08-.1.11c-.04.04-.08.07-.13.09s-.1.05-.15.06-.11.03-.18.03-.13.01-.2.01h-3.35c-.07,0-.14,0-.2-.01s-.11-.02-.16-.03-.09-.04-.13-.06-.06-.06-.09-.09c-.03-.03-.05-.07-.07-.11s-.03-.09-.03-.15,0-.12,0-.18.01-.13.03-.2l1.19-6.05c.02-.11.05-.23.08-.35s.07-.24.11-.37.09-.26.14-.39.11-.27.18-.41c.06-.14.12-.28.2-.43s.15-.31.23-.47.17-.33.27-.5.2-.35.3-.53l2.68-4.62c.03-.06.07-.11.1-.16s.07-.09.11-.13.08-.08.12-.11.09-.06.13-.09c.05-.03.1-.05.15-.07s.11-.03.16-.05.12-.02.18-.03.13,0,.2,0h5.52c.07,0,.13,0,.19,0s.11.01.17.03.1.03.15.05.09.04.13.07c.04.03.07.06.11.09s.06.07.09.11.05.08.07.13.03.1.05.16l1.28,4.62c.05.18.1.36.14.53s.08.34.12.5.07.32.1.47.05.29.07.43Z"/>
  <g>
    <path class="cls-2" d="m31.18,9.64c-.09,0-.17-.04-.21-.12s-.05-.16-.02-.24l1.51-3.22.25-.32s.07-.07.12-.08l.25-.08h.6s.3.08.3.08c.06.02.11.06.14.12l.13.26.57,3.3c.01.07,0,.15-.05.2-.05.06-.12.09-.19.09h-3.39Z"/>
    <path class="cls-9" d="m33.67,5.82l.21.08.14.26.55,3.22h-3.39l1.51-3.22.22-.26.25-.08h.52m0-.5h-.52c-.05,0-.1,0-.15.02l-.25.08c-.09.03-.18.09-.24.16l-.22.26s-.05.07-.07.1l-1.51,3.22c-.07.15-.06.34.03.48.09.14.25.23.42.23h3.39c.15,0,.29-.06.38-.18.1-.11.14-.26.11-.41l-.55-3.22c0-.05-.02-.1-.05-.14l-.14-.26c-.06-.11-.15-.2-.27-.24l-.21-.08c-.06-.02-.11-.03-.17-.03h0Z"/>
  </g>
  <path class="cls-3" d="m54.02,1.96c.07,0,.13,0,.18,0s.11.02.15.03.09.03.13.05.07.05.1.07c.03.03.05.06.07.09s.04.08.05.12.03.09.03.15.01.11.01.17l-.05,14.07c0,.07,0,.14-.01.2s-.02.12-.04.18-.04.11-.06.15-.05.08-.08.11c-.03.04-.07.07-.12.09s-.09.05-.14.06-.11.03-.17.03-.13.01-.2.01h-3.42c-.07,0-.14,0-.2-.01s-.12-.02-.17-.03-.1-.04-.14-.06-.07-.06-.1-.09c-.03-.03-.06-.07-.09-.11s-.04-.09-.06-.15-.03-.12-.03-.18,0-.13,0-.2l.1-2.9-3.52-4.6-.46,7.49c0,.07-.01.14-.02.2s-.03.12-.05.18-.04.11-.07.15-.05.08-.09.11c-.04.04-.08.07-.12.09s-.09.05-.15.06-.11.03-.17.03-.13.01-.2.01h-3.42c-.07,0-.14,0-.2-.01s-.12-.02-.17-.03-.09-.04-.13-.06-.07-.06-.1-.09c-.03-.03-.06-.07-.08-.11s-.04-.09-.05-.15-.02-.12-.02-.18,0-.13,0-.2l1.32-14.07c0-.06.01-.12.03-.17s.03-.1.05-.15.04-.09.07-.12.06-.07.09-.09c.03-.03.06-.05.1-.07s.08-.04.13-.05.1-.02.16-.03.12,0,.18,0h2.14c.07,0,.13,0,.19,0s.12,0,.17.02.11.02.16.03.1.03.14.05c.04.02.09.05.13.07s.09.06.13.09.09.07.13.11.09.08.13.13l3.82,4.51.16-4.33c0-.06,0-.12.02-.17s.02-.1.04-.15.04-.09.06-.12.05-.07.08-.09c.03-.03.06-.05.1-.07s.08-.04.13-.05.1-.02.15-.03.12,0,.18,0h3.08Z"/>
  <path class="cls-8" d="m93.28,1.96c.07,0,.13,0,.18,0s.11.02.16.03.1.03.14.05.09.05.12.07c.03.03.07.06.1.09s.06.08.09.12.05.09.07.15.04.11.06.17l.65,2.35c.02.07.03.13.04.18s.01.11,0,.16,0,.09-.02.13-.03.07-.05.1c-.02.03-.05.06-.09.08s-.07.04-.12.05-.09.02-.15.03-.12,0-.18,0h-5.81l.37,1.61h4.15c.07,0,.13,0,.19.01s.12.02.17.03.1.03.15.05.09.05.13.07c.04.03.07.07.1.11s.06.08.09.13.05.1.08.16.04.12.06.19l.61,2.32c.02.07.03.13.04.19s.01.11,0,.16,0,.09-.02.13-.03.07-.05.1c-.02.03-.05.06-.09.09s-.07.05-.12.06-.1.03-.15.04-.12.01-.19.01h-4.26l.45,1.94h6.11c.07,0,.14,0,.2.01s.12.02.18.03.11.03.15.06.09.05.14.09c.04.03.07.06.1.1s.06.08.09.13.05.1.08.16.05.12.07.19c.13.49.15.96.09,1.39s-.21.82-.43,1.15-.53.6-.9.79-.8.3-1.28.31h-7.87c-.07,0-.14,0-.21-.01s-.13-.02-.18-.03-.11-.04-.16-.06-.09-.06-.13-.09c-.04-.03-.08-.07-.11-.11s-.06-.09-.09-.15-.05-.12-.07-.18-.04-.13-.05-.2l-2.79-14.07c-.01-.06-.02-.12-.02-.17s0-.1,0-.15.01-.09.03-.12.03-.07.06-.09c.02-.03.05-.05.08-.07s.07-.04.12-.05.1-.02.15-.03.12,0,.18,0h9.51Z"/>
  <path class="cls-6" d="m81.1,1.96c.07,0,.13,0,.18,0s.11.02.16.03.1.03.14.05.08.05.12.07c.03.03.06.06.09.09s.05.08.08.12.04.09.06.15.03.11.04.17l.44,2.35c.01.07.02.13.02.18s0,.11,0,.16-.02.09-.03.13-.03.07-.06.1c-.03.03-.06.06-.09.08s-.08.04-.12.05-.1.02-.15.03-.12,0-.19,0h-5.81l.23,1.61h4.15c.07,0,.13,0,.19.01s.11.02.17.03.1.03.14.05.08.05.12.07c.03.03.06.07.09.11s.06.08.08.13.04.1.06.16.03.12.05.19l.41,2.32c.01.07.02.13.02.19s0,.11,0,.16-.02.09-.03.13-.03.07-.06.1c-.03.03-.06.06-.1.09s-.08.05-.13.06-.1.03-.16.04-.12.01-.19.01h-4.26l.28,1.94h6.11c.07,0,.14,0,.2.01s.12.02.17.03.1.03.15.06.09.05.13.09c.03.03.07.07.1.11s.06.09.08.14.05.11.07.17.04.13.05.2l.52,2.76c.01.07.02.14.03.2s0,.12,0,.18-.02.11-.03.15-.03.08-.06.11c-.03.04-.06.07-.1.09s-.08.05-.13.06-.1.03-.17.03-.13.01-.2.01h-10.57c-.07,0-.14,0-.21-.01s-.12-.02-.18-.03-.11-.04-.15-.06-.08-.06-.12-.09c-.04-.03-.07-.07-.1-.11s-.05-.09-.07-.15-.04-.12-.05-.18-.02-.13-.03-.2l-1.57-14.07c0-.06,0-.12,0-.17s0-.1.01-.15.02-.09.04-.12.04-.07.07-.09c.02-.03.05-.05.09-.07s.08-.04.12-.05.1-.02.15-.03.12,0,.18,0h9.51Z"/>
  <path class="cls-7" d="m68.54,1.96c.06,0,.11,0,.16,0s.1.02.14.03.08.03.11.05.06.05.08.07c.02.03.04.06.05.09s.02.07.02.11,0,.08,0,.13-.02.09-.04.15l-1.72,4.75c.2.01.39.04.58.08s.36.09.52.16.32.15.47.25.29.22.42.35c.13.13.25.27.36.42s.2.31.28.48.14.36.19.55.09.4.11.62l.65,6.46c0,.07,0,.14,0,.2s0,.12-.02.18-.03.11-.05.15-.05.08-.08.11c-.03.04-.06.07-.1.09s-.09.05-.14.06-.11.03-.17.03-.13.01-.2.01h-3.51c-.07,0-.14,0-.2-.01s-.12-.02-.17-.03-.1-.04-.14-.06-.08-.06-.11-.09c-.04-.03-.07-.07-.1-.11s-.05-.09-.07-.15-.04-.12-.05-.18-.02-.13-.03-.2l-.31-4.53c0-.06-.01-.11-.02-.17s-.02-.1-.04-.15-.04-.09-.06-.13-.06-.08-.09-.11c-.03-.03-.06-.06-.1-.09s-.08-.05-.12-.06-.09-.03-.14-.04-.11-.01-.17-.01h-2.89l.23,5.29c0,.07,0,.14,0,.2s-.01.12-.02.18-.03.11-.05.15-.05.08-.08.11c-.03.04-.06.07-.1.09s-.09.05-.14.06-.11.03-.17.03-.13.01-.19.01h-3.54c-.07,0-.14,0-.2-.01s-.12-.02-.17-.03-.1-.04-.14-.06-.08-.06-.12-.09c-.03-.03-.06-.07-.08-.11s-.04-.09-.06-.15-.03-.12-.04-.18-.01-.13-.01-.2l-.15-14.07c0-.06,0-.12,0-.17s.02-.1.03-.15.03-.09.05-.12.04-.07.07-.09c.03-.03.06-.05.1-.07s.08-.04.13-.05.1-.02.15-.03.12,0,.18,0h3.18c.06,0,.12,0,.18,0s.11.02.15.03.09.03.13.05.07.05.1.07c.03.03.06.06.08.09s.04.08.06.12.03.09.04.15.01.11.02.17l.21,4.69h.86l1.88-4.75c.02-.06.04-.11.07-.16s.05-.1.08-.14.06-.08.1-.11.07-.06.12-.09c.04-.02.08-.04.12-.06s.09-.03.15-.04.11-.02.17-.02.12,0,.19,0h3.15Z"/>
  <path class="cls-24" d="m101.78,21.11c-.5,0-.9-.4-.9-.9s.4-.9.9-.9.9.4.9.9-.4.9-.9.9Zm0-1.33c-.23,0-.42.19-.42.42s.19.42.42.42.42-.19.42-.42-.19-.42-.42-.42Z"/>
  <path class="cls-9" d="m100.06,15.37c-.5,0-.9-.4-.9-.9s.4-.9.9-.9.9.4.9.9-.4.9-.9.9Zm0-1.33c-.23,0-.42.19-.42.42s.19.42.42.42.42-.19.42-.42-.19-.42-.42-.42Z"/>
  <path class="cls-9" d="m103.41,4.77h-.53v-.53c0-.12-.1-.23-.23-.23s-.23.1-.23.23v.53h-.53c-.12,0-.23.1-.23.23s.1.23.23.23h.53v.53c0,.12.1.23.23.23s.23-.1.23-.23v-.53h.53c.12,0,.23-.1.23-.23s-.1-.23-.23-.23Z"/>
  <path class="cls-27" d="m101.71,8.43h-.53v-.53c0-.12-.1-.23-.23-.23s-.23.1-.23.23v.53h-.53c-.12,0-.23.1-.23.23s.1.23.23.23h.53v.53c0,.12.1.23.23.23s.23-.1.23-.23v-.53h.53c.12,0,.23-.1.23-.23s-.1-.23-.23-.23Z"/>
  <path class="cls-9" d="m74.66,19.53h-.53l.17-.59c.04-.14-.03-.25-.16-.25s-.26.11-.3.25l-.17.59h-.53c-.12,0-.26.11-.3.25s.03.25.16.25h.53l-.17.59c-.04.14.03.25.16.25s.26-.11.3-.25l.17-.59h.53c.12,0,.26-.11.3-.25s-.03-.25-.16-.25Z"/>
  <path class="cls-13" d="m87.5,19.53h-.53l.17-.59c.04-.14-.03-.25-.16-.25s-.26.11-.3.25l-.17.59h-.53c-.12,0-.26.11-.3.25s.03.25.16.25h.53l-.17.59c-.04.14.03.25.16.25s.26-.11.3-.25l.17-.59h.53c.12,0,.26-.11.3-.25s-.03-.25-.16-.25Z"/>
  <path class="cls-9" d="m37.5,19.56h-.53l-.09-.53c-.02-.13-.14-.23-.26-.23s-.21.1-.19.23l.09.53h-.53c-.12,0-.21.1-.19.23s.14.23.26.23h.53l.09.53c.02.13.14.23.26.23s.21-.1.19-.23l-.09-.53h.53c.12,0,.21-.1.19-.23s-.14-.23-.26-.23Z"/>
  <path class="cls-9" d="m33.8,7.68h-.45l.08-.45c.02-.11-.05-.19-.16-.19s-.21.09-.23.19l-.08.45h-.45c-.11,0-.21.09-.23.19s.05.19.16.19h.45l-.08.45c-.02.11.05.19.16.19s.21-.09.23-.19l.08-.45h.45c.11,0,.21-.09.23-.19s-.05-.19-.16-.19Z"/>
  <path class="cls-9" d="m15.96.75h-.53V.23c0-.12-.1-.23-.23-.23s-.23.1-.23.23v.53h-.53c-.12,0-.23.1-.23.23s.1.23.23.23h.53v.53c0,.12.1.23.23.23s.23-.1.23-.23v-.53h.53c.12,0,.23-.1.23-.23s-.1-.23-.23-.23Z"/>
  <path class="cls-9" d="m60.15,14.97h-.53l-.02-.52c0-.12-.11-.22-.24-.22s-.22.1-.22.22l.02.52h-.53c-.12,0-.22.1-.22.22s.11.22.24.22h.53l.02.52c0,.12.11.22.24.22s.22-.1.22-.22l-.02-.52h.53c.12,0,.22-.1.22-.22s-.11-.22-.24-.22Z"/>
  <path class="cls-24" d="m22.34,3.79h-.53l.12-.53c.03-.13-.05-.23-.18-.23s-.25.1-.28.23l-.12.53h-.53c-.12,0-.25.1-.28.23s.05.23.18.23h.53l-.12.53c-.03.13.05.23.18.23s.25-.1.28-.23l.12-.53h.53c.12,0,.25-.1.28-.23s-.05-.23-.18-.23Z"/>
  <rect class="cls-27" x="12.38" y="6.79" width="1.13" height="1.08" rx=".42" ry=".42"/>
  <rect class="cls-14" x="9.54" y="9.93" width="1.13" height="1.08" rx=".42" ry=".42"/>
  <rect class="cls-13" x="10.44" y="4.74" width="1.13" height="1.08" rx=".42" ry=".42"/>
  <rect class="cls-14" x="3.75" y="4.74" width="1.13" height="1.08" rx=".42" ry=".42"/>
  <rect class="cls-24" x="8.86" y="19.92" width="1.13" height="1.08" rx=".42" ry=".42"/>
  <rect class="cls-14" x="6.68" y="19.92" width="1.13" height="1.08" rx=".42" ry=".42"/>
  <rect class="cls-9" x="4.32" y="19.92" width="1.13" height="1.08" rx=".42" ry=".42"/>
  <rect class="cls-24" x="103.19" y="19.67" width="1.13" height="1.08" rx=".42" ry=".42"/>
  <rect class="cls-14" x="105.01" y="19.67" width="1.13" height="1.08" rx=".42" ry=".42"/>
  <rect class="cls-27" x="106.71" y="19.67" width="1.13" height="1.08" rx=".42" ry=".42"/>
  <rect class="cls-9" x="108.46" y="19.67" width="1.13" height="1.08" rx=".42" ry=".42"/>
  <rect class="cls-19" x="98.6" y="17.3" width="1.13" height="1.08" rx=".42" ry=".42"/>
  <rect class="cls-9" x="97.33" y="8.21" width="1.13" height="1.08" rx=".42" ry=".42"/>
  <rect class="cls-14" x="98.6" y="2.57" width="1.13" height="1.08" rx=".42" ry=".42" transform="translate(31.25 -69.21) rotate(45)"/>
  <rect class="cls-9" x="100.4" y="2.57" width="1.13" height="1.08" rx=".42" ry=".42" transform="translate(31.77 -70.48) rotate(45)"/>
  <path class="cls-24" d="m78.89,9.67h-.2c-.16,0-.32-.13-.36-.29l-.04-.17c-.04-.16.06-.29.21-.29h.2c.16,0,.32.13.36.29l.04.17c.04.16-.06.29-.21.29Z"/>
  <path class="cls-24" d="m88.78,4.16h-.3c-.23,0-.46-.2-.51-.44l-.06-.26c-.05-.24.09-.44.32-.44h.3c.23,0,.46.2.51.44l.06.26c.05.24-.09.44-.32.44Z"/>
  <rect class="cls-9" x="103.41" y="23.78" width="1.13" height="1.08" rx=".42" ry=".42"/>
  <rect class="cls-9" x="98.6" y="21.93" width="2.9" height="1.08" rx=".42" ry=".42"/>
  <rect class="cls-19" x="100.49" y="17.3" width="4.5" height="1.08" rx=".42" ry=".42"/>
  <rect class="cls-9" x="105.61" y="17.3" width="1.93" height="1.08" rx=".42" ry=".42"/>
  <rect class="cls-25" x="8.3" y="4.74" width="1.69" height="1.08" rx=".42" ry=".42"/>
  <rect class="cls-23" x="11.24" y="9.93" width="3.63" height="1.08" rx=".42" ry=".42"/>
  <rect class="cls-9" x="11.61" y="23.78" width="2.67" height="1.08" rx=".42" ry=".42"/>
  <polygon class="cls-24" points="112.26 22.62 110.91 23.98 109.55 22.63 108.21 24 106.84 22.65 105.26 24.26 105.75 24.73 106.85 23.61 108.21 24.96 109.56 23.6 110.92 24.94 112.26 23.58 112.26 23.58 112.74 23.1 112.26 22.62"/>
  <polygon class="cls-9" points="14.78 13.22 13.44 14.58 12.08 13.24 10.74 14.6 9.37 13.26 7.79 14.86 8.27 15.34 9.38 14.22 10.74 15.56 12.09 14.2 13.45 15.55 14.79 14.18 14.79 14.19 15.27 13.71 14.78 13.22"/>
  <path class="cls-24" d="m6.82,6.18c-.5,0-.9-.4-.9-.9s.4-.9.9-.9.9.4.9.9-.4.9-.9.9Zm0-1.33c-.23,0-.42.19-.42.42s.19.42.42.42.42-.19.42-.42-.19-.42-.42-.42Z"/>
  <path class="cls-9" d="m11.96,21.41c-.5,0-.9-.4-.9-.9s.4-.9.9-.9.9.4.9.9-.4.9-.9.9Zm0-1.33c-.23,0-.42.19-.42.42s.19.42.42.42.42-.19.42-.42-.19-.42-.42-.42Z"/>
  <path class="cls-27" d="m4.74,15.72c-.5,0-.9-.4-.9-.9s.4-.9.9-.9.9.4.9.9-.4.9-.9.9Zm0-1.33c-.23,0-.42.19-.42.42s.19.42.42.42.42-.19.42-.42-.19-.42-.42-.42Z"/>
  <path class="cls-24" d="m43.71,10.01c-.5,0-.85-.42-.79-.93s.52-.93,1.01-.93.85.42.79.93-.52.93-1.01.93Zm.17-1.37c-.23,0-.45.2-.48.44s.14.44.37.44.45-.2.48-.44-.14-.44-.37-.44Z"/>
  <path class="cls-9" d="m27.95,20.57c-.5,0-1-.4-1.12-.9s.19-.9.68-.9,1,.4,1.12.9-.19.9-.68.9Zm-.32-1.32c-.23,0-.38.19-.32.42s.29.42.53.42.38-.19.32-.42-.29-.42-.53-.42Z"/>
  <path class="cls-9" d="m68.39,20.66c-.5,0-.84-.39-.77-.87s.54-.87,1.03-.87.84.39.77.87-.54.87-1.03.87Zm.19-1.29c-.23,0-.45.18-.49.41s.13.41.36.41.45-.18.49-.41-.13-.41-.36-.41Z"/>
  <path class="cls-9" d="m73.45,4.65c-.43,0-.85-.34-.95-.76s.17-.76.59-.76.85.34.95.76-.17.76-.59.76Zm-.26-1.12c-.2,0-.33.16-.28.36s.25.36.45.36.33-.16.28-.36-.25-.36-.45-.36Z"/>
  <path class="cls-24" d="m95.07,16.12c-.5,0-.99-.42-1.09-.93s.21-.93.71-.93.99.42,1.09.93-.21.93-.71.93Zm-.28-1.37c-.23,0-.38.2-.34.44s.28.44.51.44.38-.2.34-.44-.28-.44-.51-.44Z"/>
  <rect class="cls-2" x="18.8" y="21.93" width="4.66" height="1.08" rx=".42" ry=".42"/>
  <rect class="cls-2" x="16.14" y="19.96" width="7.32" height="1.08" rx=".42" ry=".42"/>
  <rect class="cls-13" x="14.42" y="20.09" width=".83" height=".83" rx=".42" ry=".42"/>
  <rect class="cls-13" x="17.33" y="22.08" width=".83" height=".8" rx=".4" ry=".4"/>
  <rect class="cls-24" x="15.61" y="22.08" width=".83" height=".8" rx=".4" ry=".4"/>
  <rect class="cls-24" x="2.37" y="20.06" width=".83" height=".8" rx=".4" ry=".4"/>
  <rect class="cls-14" x="14" y="22.08" width=".83" height=".8" rx=".4" ry=".4"/>
  <rect class="cls-9" x="12.16" y="21.93" width="1.01" height="1.08" rx=".42" ry=".42"/>
  <rect class="cls-13" x="97.79" y="19.82" width=".83" height=".8" rx=".4" ry=".4"/>
  <rect class="cls-9" x="99.22" y="19.82" width=".83" height=".8" rx=".4" ry=".4"/>
  <rect class="cls-27" x="99.31" y="4.6" width=".83" height=".8" rx=".4" ry=".4"/>
  <rect class="cls-13" x="98.04" y="4.6" width=".83" height=".8" rx=".4" ry=".4"/>
  <rect class="cls-24" x="101.52" y="14.07" width=".83" height=".8" rx=".4" ry=".4"/>
  <rect class="cls-14" x="103" y="14.07" width=".83" height=".8" rx=".4" ry=".4"/>
  <rect class="cls-19" x="57.29" y="23.38" width=".83" height=".8" rx=".4" ry=".4"/>
  <rect class="cls-13" x="80.94" y="23.52" width=".83" height=".8" rx=".4" ry=".4"/>
  <rect class="cls-13" x="50.41" y="23.52" width=".83" height=".8" rx=".4" ry=".4"/>
  <rect class="cls-13" x="30.34" y="23.52" width=".83" height=".8" rx=".4" ry=".4"/>
  <rect class="cls-13" x="59" y="18.89" width=".83" height=".8" rx=".4" ry=".4"/>
  <rect class="cls-9" x="45.12" y="23.52" width=".83" height=".8" rx=".4" ry=".4"/>
  <rect class="cls-9" x="45.12" y="22.15" width=".83" height=".8" rx=".4" ry=".4"/>
  <rect class="cls-9" x="84.01" y="23.38" width=".83" height=".8" rx=".4" ry=".4"/>
  <rect class="cls-9" x="20.71" y="18.5" width=".83" height=".79" rx=".4" ry=".4"/>
  <path class="cls-24" d="m33.49,4.43h-.04c-.22,0-.37-.17-.33-.38h0c.04-.21.25-.38.46-.38h.04c.22,0,.37.17.33.38h0c-.04.21-.25.38-.46.38Z"/>
  <rect class="cls-13" x="21.12" y="19.82" width=".83" height=".79" rx=".4" ry=".4"/>
  <rect class="cls-9" x="21.54" y="21" width=".83" height=".79" rx=".4" ry=".4"/>
  <rect class="cls-13" x="102.26" y="17.44" width=".83" height=".8" rx=".4" ry=".4"/>
</svg>